<svg xmlns="http://www.w3.org/2000/svg" xmlns:xlink="http://www.w3.org/1999/xlink" width="192" zoomAndPan="magnify" viewBox="0 0 144 143.999998" height="192" preserveAspectRatio="xMidYMid meet" version="1.0"><defs><clipPath id="202d2947ee"><path d="M 44 49 L 45 49 L 45 52.5 L 44 52.5 Z M 44 49 " clip-rule="nonzero"/></clipPath><clipPath id="92d2b1a9a8"><path d="M 34 65 L 39.539062 65 L 39.539062 68 L 34 68 Z M 34 65 " clip-rule="nonzero"/></clipPath><clipPath id="f725e53239"><path d="M 4.289062 62 L 9 62 L 9 64 L 4.289062 64 Z M 4.289062 62 " clip-rule="nonzero"/></clipPath><clipPath id="41735ff2a3"><path d="M 4.289062 68 L 9 68 L 9 70 L 4.289062 70 Z M 4.289062 68 " clip-rule="nonzero"/></clipPath></defs><rect x="-14.4" width="172.8" fill="#ffffff" y="-14.4" height="172.799997" fill-opacity="1"/><rect x="-14.4" width="172.8" fill="#94edb3" y="-14.4" height="172.799997" fill-opacity="1"/><path fill="#000000" d="M 43.480469 0.660156 C 43.460938 2.660156 43.558594 10.964844 43.574219 15.675781 C 43.582031 19.101562 43.640625 22.785156 43.640625 26.273438 C 43.980469 26.273438 44.171875 26.273438 44.464844 26.273438 C 44.488281 25.910156 44.449219 24.859375 44.445312 24.558594 C 44.375 19.058594 44.292969 13.554688 44.246094 8.046875 C 44.230469 5.597656 44.234375 3.296875 44.277344 0.628906 C 44.050781 0.00390625 43.585938 0.230469 43.480469 0.660156 Z M 45.929688 27.855469 C 45.996094 27.71875 46.011719 26.992188 45.871094 26.878906 C 45.640625 26.695312 42.867188 26.632812 42.554688 26.996094 C 42.46875 27.128906 42.410156 27.730469 42.613281 27.851562 C 43.015625 28.101562 45.613281 28.097656 45.929688 27.855469 Z M 42.570312 28.585938 C 42.59375 29.726562 42.625 30.695312 42.601562 32.054688 C 43.429688 31.980469 45.246094 31.90625 46.011719 32.015625 C 45.992188 30.941406 46.011719 29.65625 45.996094 28.558594 C 45.351562 28.453125 43.191406 28.433594 42.570312 28.59375 Z M 46.101562 32.664062 C 45.285156 32.558594 43.421875 32.480469 42.496094 32.734375 C 42.257812 33.160156 42.140625 33.621094 42.148438 34.113281 C 43.675781 33.808594 44.441406 33.695312 46.550781 34.066406 C 46.484375 33.578125 46.339844 32.84375 46.101562 32.667969 Z M 46.101562 32.664062 " fill-opacity="1" fill-rule="nonzero"/><path fill="#ffffff" d="M 50.050781 34.253906 C 50.441406 33.488281 51.898438 32.378906 52.148438 32.566406 C 52.378906 32.675781 52.171875 33.0625 52.003906 33.195312 C 51.375 33.707031 50.953125 34.113281 50.285156 34.589844 C 50.230469 34.628906 49.976562 34.480469 50.050781 34.253906 Z M 50.050781 34.253906 " fill-opacity="1" fill-rule="nonzero"/><path fill="#ffffff" d="M 51.714844 35.808594 C 52.628906 35.285156 53.199219 35.175781 54.234375 34.78125 C 54.636719 34.738281 54.601562 35.242188 54.410156 35.375 C 54.136719 35.558594 52.976562 36 51.863281 36.257812 Z M 51.714844 35.808594 " fill-opacity="1" fill-rule="nonzero"/><path fill="#ffffff" d="M 53.164062 41.375 C 54.304688 41.210938 55.164062 41.257812 55.488281 41.394531 C 55.710938 41.488281 55.949219 41.789062 55.671875 41.867188 C 54.871094 42.109375 53.746094 41.960938 53.265625 41.726562 C 53.03125 41.613281 52.933594 41.476562 53.164062 41.375 Z M 53.164062 41.375 " fill-opacity="1" fill-rule="nonzero"/><path fill="#ffffff" d="M 34.226562 39.613281 C 33.859375 39.429688 34.191406 39.199219 34.34375 39.109375 C 34.894531 38.792969 35.917969 39.144531 36.542969 39.632812 C 36.425781 39.957031 35.136719 40.097656 34.226562 39.613281 Z M 34.226562 39.613281 " fill-opacity="1" fill-rule="nonzero"/><path fill="#ffffff" d="M 34.234375 43.777344 C 34.027344 43.695312 34.097656 43.308594 34.28125 43.183594 C 34.714844 42.890625 35.863281 42.820312 36.128906 42.773438 C 36.722656 42.726562 36.738281 42.910156 36.679688 43.058594 C 36.621094 43.207031 35.292969 44.003906 34.234375 43.777344 Z M 34.234375 43.777344 " fill-opacity="1" fill-rule="nonzero"/><path fill="#ffffff" d="M 50.847656 50.195312 C 50.011719 49.222656 49.398438 47.960938 49.613281 48.019531 C 50.683594 48.53125 50.925781 49.164062 51.308594 49.722656 C 51.777344 50.40625 51.101562 50.496094 50.847656 50.195312 Z M 50.847656 50.195312 " fill-opacity="1" fill-rule="nonzero"/><path fill="#ffffff" d="M 55.195312 45.011719 C 54.0625 45.089844 53.40625 44.773438 52.890625 44.164062 C 52.765625 43.949219 54.769531 44.136719 55.222656 44.65625 C 55.308594 44.738281 55.378906 44.957031 55.195312 45.011719 Z M 55.195312 45.011719 " fill-opacity="1" fill-rule="nonzero"/><path fill="#ffffff" d="M 38.050781 49.675781 C 37.59375 50.027344 37.441406 49.675781 37.425781 49.503906 C 37.371094 48.855469 38.160156 48.1875 39.144531 47.71875 C 39.125 48.535156 38.390625 49.273438 38.050781 49.675781 Z M 38.050781 49.675781 " fill-opacity="1" fill-rule="nonzero"/><path fill="#ffffff" d="M 55.324219 38.019531 C 55.539062 38.152344 55.390625 38.414062 55.242188 38.453125 C 54.09375 38.765625 52.792969 38.898438 52.605469 38.710938 C 52.8125 38.304688 54.464844 38.011719 55.324219 38.019531 Z M 55.324219 38.019531 " fill-opacity="1" fill-rule="nonzero"/><path fill="#ffffff" d="M 35.308594 46.722656 C 35.636719 46.011719 36.777344 45.605469 37.265625 45.53125 C 37.464844 45.773438 36.21875 47.0625 35.644531 47.132812 C 35.53125 47.140625 35.441406 47.101562 35.371094 47.015625 C 35.300781 46.925781 35.277344 46.832031 35.308594 46.722656 Z M 35.308594 46.722656 " fill-opacity="1" fill-rule="nonzero"/><path fill="#ffffff" d="M 41.5625 49.015625 C 41.972656 49.949219 41.378906 51.007812 41.089844 51.734375 C 40.984375 51.75 40.886719 51.726562 40.800781 51.664062 C 40.714844 51.597656 40.660156 51.515625 40.640625 51.410156 C 40.488281 50.851562 40.867188 49.949219 41.5625 49.015625 Z M 41.5625 49.015625 " fill-opacity="1" fill-rule="nonzero"/><path fill="#ffffff" d="M 53.769531 47.871094 C 53.746094 48.097656 53.558594 48.097656 53.4375 48.109375 C 52.792969 48.148438 51.332031 46.351562 51.652344 46.234375 C 52.34375 46.273438 53.292969 47.175781 53.769531 47.871094 Z M 53.769531 47.871094 " fill-opacity="1" fill-rule="nonzero"/><path fill="#ffffff" d="M 37.019531 36.96875 C 36.433594 36.761719 35.90625 36.5 35.152344 36.234375 C 34.808594 35.964844 35.074219 35.789062 35.242188 35.714844 C 35.730469 35.511719 36.617188 36.046875 37.335938 36.777344 C 37.292969 36.878906 37.25 37.078125 37.019531 36.96875 Z M 37.019531 36.96875 " fill-opacity="1" fill-rule="nonzero"/><path fill="#ffffff" d="M 48.269531 51.375 C 48.097656 51.644531 47.707031 51.65625 47.617188 51.53125 C 47.335938 51.164062 46.992188 49.433594 47.109375 49.105469 C 47.519531 49.011719 48.074219 50.636719 48.269531 51.375 Z M 48.269531 51.375 " fill-opacity="1" fill-rule="nonzero"/><path fill="#ffffff" d="M 39.132812 34.644531 C 38.929688 34.828125 37.816406 34.121094 37.328125 33.546875 C 37.058594 33.285156 37.464844 32.957031 37.578125 33.011719 C 38.109375 33.265625 39.175781 34.304688 39.132812 34.644531 Z M 39.132812 34.644531 " fill-opacity="1" fill-rule="nonzero"/><g clip-path="url(#202d2947ee)"><path fill="#ffffff" d="M 44.324219 49.367188 C 44.636719 49.332031 44.933594 51.648438 44.761719 51.851562 C 44.035156 52.554688 43.78125 50.804688 44.324219 49.367188 Z M 44.324219 49.367188 " fill-opacity="1" fill-rule="nonzero"/></g><path fill="#ffffff" d="M 46.480469 37.023438 C 47.449219 37.53125 47.277344 38.691406 46.273438 39.113281 C 45.167969 39.554688 44.042969 39.613281 42.898438 39.289062 C 42.191406 39.105469 41.597656 38.421875 41.835938 37.714844 C 42.019531 37.183594 42.664062 36.917969 43.058594 36.5 C 43.578125 35.949219 43.609375 35.105469 43.558594 34.457031 C 42.414062 34.640625 39.851562 35.257812 38.636719 38.78125 C 38.101562 40.847656 38.328125 42.601562 39.175781 44.320312 C 39.761719 45.503906 42.734375 48.566406 47.480469 46.628906 C 48.628906 46.160156 50.375 44.359375 50.691406 42.714844 C 51.070312 40.726562 50.863281 39.070312 49.855469 37.339844 C 48.898438 35.691406 47.207031 34.710938 45.199219 34.378906 C 45.234375 35.53125 45.335938 36.417969 46.480469 37.023438 Z M 46.480469 37.023438 " fill-opacity="1" fill-rule="nonzero"/><path fill="#ffffff" d="M 43.59375 38.042969 C 44.210938 38.53125 44.007812 37.570312 44.621094 37.914062 C 45.101562 38.183594 45.238281 38.140625 45.523438 37.863281 C 45.761719 37.636719 46.335938 38.398438 46.382812 37.722656 C 45.808594 37.398438 45.367188 36.945312 45.066406 36.359375 C 44.761719 35.773438 44.640625 35.152344 44.707031 34.496094 C 44.707031 34.496094 44.179688 34.496094 44.078125 34.507812 C 44.222656 35.847656 44.261719 36.667969 42.425781 37.695312 C 42.308594 38.101562 43.003906 37.792969 43.214844 37.808594 C 43.425781 37.824219 43.390625 37.878906 43.59375 38.042969 Z M 43.59375 38.042969 " fill-opacity="1" fill-rule="nonzero"/><path fill="#000000" d="M 19.683594 1.054688 C 19.65625 4.242188 19.8125 17.5 19.832031 25.019531 C 19.847656 30.492188 19.941406 36.371094 19.941406 41.9375 C 20.480469 41.9375 20.789062 41.9375 21.253906 41.9375 C 21.292969 41.351562 21.230469 39.675781 21.226562 39.195312 C 21.109375 30.417969 20.980469 21.636719 20.910156 12.84375 C 20.878906 8.929688 20.886719 5.261719 20.957031 1.007812 C 20.59375 0.0078125 19.851562 0.367188 19.683594 1.054688 Z M 23.59375 44.457031 C 23.699219 44.242188 23.726562 43.082031 23.5 42.902344 C 23.128906 42.613281 18.703125 42.511719 18.207031 43.089844 C 18.070312 43.300781 17.980469 44.261719 18.300781 44.457031 C 18.945312 44.851562 23.089844 44.851562 23.59375 44.457031 Z M 18.230469 45.628906 C 18.269531 47.445312 18.320312 48.992188 18.28125 51.164062 C 19.601562 51.046875 22.503906 50.929688 23.726562 51.101562 C 23.691406 49.386719 23.726562 47.332031 23.699219 45.582031 C 22.671875 45.414062 19.222656 45.386719 18.230469 45.636719 Z M 23.867188 52.132812 C 22.566406 51.964844 19.589844 51.839844 18.113281 52.246094 C 17.734375 52.929688 17.550781 53.664062 17.5625 54.445312 C 20 53.960938 21.21875 53.785156 24.585938 54.371094 C 24.480469 53.59375 24.246094 52.421875 23.867188 52.144531 Z M 23.867188 52.132812 " fill-opacity="1" fill-rule="nonzero"/><path fill="#ffffff" d="M 30.171875 54.671875 C 30.796875 53.449219 33.121094 51.683594 33.519531 51.980469 C 33.886719 52.15625 33.558594 52.769531 33.289062 52.984375 C 32.285156 53.800781 31.613281 54.449219 30.546875 55.210938 C 30.457031 55.269531 30.054688 55.035156 30.171875 54.671875 Z M 30.171875 54.671875 " fill-opacity="1" fill-rule="nonzero"/><path fill="#ffffff" d="M 32.824219 57.15625 C 34.289062 56.320312 35.199219 56.144531 36.851562 55.515625 C 37.488281 55.445312 37.4375 56.25 37.125 56.460938 C 36.691406 56.753906 34.839844 57.457031 33.066406 57.871094 Z M 32.824219 57.15625 " fill-opacity="1" fill-rule="nonzero"/><g clip-path="url(#92d2b1a9a8)"><path fill="#ffffff" d="M 35.144531 66.039062 C 36.960938 65.78125 38.332031 65.851562 38.851562 66.070312 C 39.203125 66.21875 39.585938 66.699219 39.144531 66.824219 C 37.863281 67.210938 36.070312 66.976562 35.304688 66.601562 C 34.925781 66.421875 34.773438 66.199219 35.144531 66.039062 Z M 35.144531 66.039062 " fill-opacity="1" fill-rule="nonzero"/></g><g clip-path="url(#f725e53239)"><path fill="#ffffff" d="M 4.914062 63.226562 C 4.332031 62.933594 4.855469 62.566406 5.101562 62.425781 C 5.980469 61.917969 7.617188 62.480469 8.613281 63.261719 C 8.425781 63.777344 6.367188 63.996094 4.914062 63.226562 Z M 4.914062 63.226562 " fill-opacity="1" fill-rule="nonzero"/></g><g clip-path="url(#41735ff2a3)"><path fill="#ffffff" d="M 4.925781 69.875 C 4.59375 69.742188 4.710938 69.125 5.003906 68.929688 C 5.695312 68.457031 7.527344 68.34375 7.953125 68.273438 C 8.894531 68.195312 8.925781 68.488281 8.832031 68.726562 C 8.738281 68.964844 6.617188 70.234375 4.925781 69.875 Z M 4.925781 69.875 " fill-opacity="1" fill-rule="nonzero"/></g><path fill="#ffffff" d="M 31.445312 80.121094 C 30.109375 78.5625 29.132812 76.550781 29.472656 76.644531 C 31.183594 77.460938 31.570312 78.476562 32.179688 79.363281 C 32.929688 80.453125 31.851562 80.597656 31.445312 80.121094 Z M 31.445312 80.121094 " fill-opacity="1" fill-rule="nonzero"/><path fill="#ffffff" d="M 38.386719 71.84375 C 36.574219 71.96875 35.527344 71.464844 34.703125 70.492188 C 34.503906 70.144531 37.707031 70.445312 38.425781 71.277344 C 38.5625 71.40625 38.679688 71.753906 38.386719 71.84375 Z M 38.386719 71.84375 " fill-opacity="1" fill-rule="nonzero"/><path fill="#ffffff" d="M 11.019531 79.289062 C 10.292969 79.851562 10.042969 79.289062 10.023438 79.015625 C 9.933594 77.976562 11.191406 76.910156 12.761719 76.164062 C 12.730469 77.46875 11.5625 78.644531 11.019531 79.289062 Z M 11.019531 79.289062 " fill-opacity="1" fill-rule="nonzero"/><path fill="#ffffff" d="M 38.589844 60.683594 C 38.929688 60.894531 38.695312 61.3125 38.457031 61.375 C 36.625 61.875 34.546875 62.085938 34.246094 61.785156 C 34.582031 61.140625 37.214844 60.671875 38.589844 60.683594 Z M 38.589844 60.683594 " fill-opacity="1" fill-rule="nonzero"/><path fill="#ffffff" d="M 6.640625 74.574219 C 7.164062 73.441406 8.984375 72.792969 9.769531 72.671875 C 10.082031 73.058594 8.097656 75.117188 7.179688 75.230469 C 7.09375 75.238281 7.011719 75.222656 6.9375 75.191406 C 6.859375 75.15625 6.792969 75.105469 6.742188 75.042969 C 6.6875 74.976562 6.652344 74.902344 6.632812 74.820312 C 6.617188 74.738281 6.621094 74.65625 6.640625 74.574219 Z M 6.640625 74.574219 " fill-opacity="1" fill-rule="nonzero"/><path fill="#ffffff" d="M 16.625 78.238281 C 17.277344 79.722656 16.332031 81.414062 15.871094 82.574219 C 15.699219 82.597656 15.546875 82.558594 15.40625 82.460938 C 15.269531 82.359375 15.183594 82.226562 15.152344 82.058594 C 14.910156 81.164062 15.511719 79.722656 16.625 78.238281 Z M 16.625 78.238281 " fill-opacity="1" fill-rule="nonzero"/><path fill="#ffffff" d="M 36.105469 76.410156 C 36.070312 76.769531 35.769531 76.773438 35.574219 76.785156 C 34.546875 76.847656 32.214844 73.984375 32.726562 73.796875 C 33.835938 73.855469 35.347656 75.300781 36.105469 76.410156 Z M 36.105469 76.410156 " fill-opacity="1" fill-rule="nonzero"/><path fill="#ffffff" d="M 9.371094 59.003906 C 8.4375 58.675781 7.59375 58.257812 6.390625 57.835938 C 5.84375 57.402344 6.265625 57.121094 6.535156 57.007812 C 7.316406 56.683594 8.730469 57.535156 9.878906 58.699219 C 9.8125 58.863281 9.742188 59.179688 9.371094 59.003906 Z M 9.371094 59.003906 " fill-opacity="1" fill-rule="nonzero"/><path fill="#ffffff" d="M 27.328125 82 C 27.058594 82.429688 26.433594 82.449219 26.285156 82.25 C 25.839844 81.664062 25.289062 78.898438 25.480469 78.378906 C 26.128906 78.230469 27.019531 80.824219 27.328125 82 Z M 27.328125 82 " fill-opacity="1" fill-rule="nonzero"/><path fill="#ffffff" d="M 12.746094 55.296875 C 12.421875 55.589844 10.644531 54.460938 9.863281 53.542969 C 9.433594 53.128906 10.082031 52.601562 10.265625 52.691406 C 11.109375 53.097656 12.8125 54.757812 12.746094 55.296875 Z M 12.746094 55.296875 " fill-opacity="1" fill-rule="nonzero"/><path fill="#ffffff" d="M 21.027344 78.792969 C 21.53125 78.742188 22.003906 82.4375 21.726562 82.757812 C 20.570312 83.886719 20.164062 81.089844 21.027344 78.792969 Z M 21.027344 78.792969 " fill-opacity="1" fill-rule="nonzero"/><path fill="#ffffff" d="M 24.476562 59.09375 C 26.019531 59.90625 25.742188 61.757812 24.144531 62.433594 C 22.382812 63.136719 20.585938 63.230469 18.757812 62.710938 C 17.628906 62.417969 16.675781 61.328125 17.058594 60.199219 C 17.351562 59.351562 18.382812 58.921875 19.011719 58.257812 C 19.84375 57.378906 19.890625 56.03125 19.808594 55 C 17.984375 55.292969 13.890625 56.277344 11.953125 61.898438 C 11.097656 65.195312 11.460938 68 12.8125 70.742188 C 13.746094 72.628906 18.492188 77.519531 26.066406 74.425781 C 27.902344 73.679688 30.6875 70.804688 31.191406 68.179688 C 31.800781 65.003906 31.46875 62.359375 29.859375 59.597656 C 28.328125 56.964844 25.632812 55.398438 22.429688 54.871094 C 22.484375 56.710938 22.644531 58.128906 24.476562 59.09375 Z M 24.476562 59.09375 " fill-opacity="1" fill-rule="nonzero"/><path fill="#ffffff" d="M 19.867188 60.722656 C 20.851562 61.5 20.527344 59.96875 21.503906 60.519531 C 22.273438 60.949219 22.492188 60.878906 22.949219 60.4375 C 23.324219 60.074219 24.242188 61.289062 24.316406 60.210938 C 23.867188 59.957031 23.464844 59.648438 23.105469 59.277344 C 22.75 58.90625 22.449219 58.492188 22.214844 58.035156 C 21.976562 57.578125 21.808594 57.09375 21.710938 56.589844 C 21.613281 56.082031 21.589844 55.574219 21.644531 55.058594 C 21.644531 55.058594 20.804688 55.058594 20.636719 55.078125 C 20.867188 57.214844 20.929688 58.527344 18.003906 60.167969 C 17.8125 60.8125 18.921875 60.320312 19.261719 60.34375 C 19.601562 60.371094 19.539062 60.457031 19.867188 60.722656 Z M 19.867188 60.722656 " fill-opacity="1" fill-rule="nonzero"/></svg>